<svg width="260" height="75" viewBox="0 0 260 75" fill="none" xmlns="http://www.w3.org/2000/svg">
<g clip-path="url(#clip0_14_3)">
<path d="M206.175 72.7907C206.187 73.0907 206.128 73.3894 206.002 73.6621C205.876 73.9347 205.686 74.1734 205.449 74.3583C204.865 74.7679 204.159 74.9689 203.446 74.9288C202.729 74.9552 202.015 74.8209 201.356 74.5357V73.3756C201.708 73.5374 202.075 73.6642 202.452 73.7543C202.804 73.842 203.165 73.8886 203.528 73.8933C203.909 73.9239 204.29 73.826 204.609 73.6153C204.721 73.5272 204.81 73.4141 204.87 73.285C204.931 73.1559 204.959 73.0145 204.954 72.8722C204.956 72.7369 204.929 72.6028 204.873 72.4794C204.817 72.356 204.735 72.2462 204.633 72.1579C204.233 71.8582 203.789 71.6236 203.316 71.4628C202.762 71.2719 202.265 70.9417 201.875 70.504C201.593 70.1378 201.445 69.6859 201.457 69.224C201.444 68.9421 201.498 68.6611 201.614 68.4038C201.73 68.1464 201.905 67.92 202.125 67.7427C202.641 67.3608 203.275 67.1709 203.917 67.2057C204.66 67.2144 205.393 67.3777 206.069 67.6851L205.68 68.6871C205.115 68.4325 204.507 68.2892 203.888 68.2652C203.566 68.2416 203.246 68.3334 202.985 68.5241C202.884 68.6069 202.803 68.7118 202.749 68.8306C202.695 68.9495 202.669 69.0791 202.673 69.2096C202.667 69.3857 202.71 69.5598 202.798 69.713C202.901 69.8738 203.041 70.0083 203.206 70.1061C203.532 70.2921 203.873 70.4524 204.224 70.5855C204.652 70.7502 205.059 70.9659 205.435 71.2279C205.673 71.4048 205.867 71.6346 206.002 71.899C206.126 72.1796 206.185 72.4843 206.175 72.7907Z" fill="white"/>
<path d="M214.303 71.0646C214.369 72.0954 214.041 73.1129 213.386 73.9122C212.676 74.5658 211.745 74.9287 210.779 74.9287C209.814 74.9287 208.883 74.5658 208.173 73.9122C207.517 73.1025 207.191 72.0751 207.261 71.0358C207.185 69.995 207.513 68.9649 208.178 68.1594C208.518 67.816 208.927 67.5496 209.379 67.3783C209.831 67.2071 210.314 67.135 210.796 67.1671C211.276 67.1375 211.757 67.2126 212.205 67.3873C212.653 67.562 213.058 67.832 213.39 68.1786C214.053 68.9887 214.38 70.0215 214.303 71.0646ZM208.563 71.0646C208.511 71.8073 208.709 72.546 209.125 73.1643C209.337 73.3898 209.594 73.5695 209.879 73.6923C210.164 73.8151 210.471 73.8784 210.782 73.8784C211.092 73.8784 211.399 73.8151 211.684 73.6923C211.969 73.5695 212.226 73.3898 212.439 73.1643C212.803 72.5232 212.994 71.799 212.994 71.0622C212.994 70.3254 212.803 69.6012 212.439 68.96C212.242 68.7179 211.989 68.5266 211.703 68.4023C211.416 68.278 211.103 68.2243 210.792 68.2457C210.477 68.2251 210.162 68.2791 209.872 68.4032C209.582 68.5274 209.326 68.7182 209.125 68.96C208.708 69.5797 208.51 70.3202 208.563 71.0646Z" fill="white"/>
<path d="M215.922 74.8281V67.3208H217.152V73.7735H220.337V74.8281H215.922Z" fill="white"/>
<path d="M227.523 67.3208V72.1771C227.531 72.679 227.408 73.1744 227.167 73.6153C226.926 74.0315 226.564 74.3656 226.13 74.5741C225.625 74.8099 225.073 74.9248 224.516 74.9096C223.721 74.9587 222.94 74.6935 222.34 74.1714C222.075 73.9059 221.868 73.5878 221.734 73.2376C221.6 72.8874 221.541 72.513 221.562 72.1387V67.3208H222.796V72.0716C222.757 72.5673 222.912 73.0589 223.228 73.4427C223.408 73.6013 223.619 73.7221 223.846 73.7979C224.074 73.8737 224.315 73.9029 224.554 73.8837C225.717 73.8837 226.293 73.2749 226.293 72.062V67.3208H227.523Z" fill="white"/>
<path d="M232.043 74.8281H230.813V68.3755H228.604V67.3208H234.253V68.3755H232.043V74.8281Z" fill="white"/>
<path d="M235.406 74.8281V67.3208H236.636V74.8281H235.406Z" fill="white"/>
<path d="M245.296 71.0648C245.36 72.0953 245.032 73.112 244.379 73.9124C243.669 74.5674 242.737 74.9312 241.771 74.9312C240.804 74.9312 239.872 74.5674 239.162 73.9124C238.508 73.1016 238.182 72.0751 238.249 71.036C238.176 69.9955 238.504 68.9664 239.167 68.1597C239.508 67.8176 239.919 67.5522 240.371 67.3811C240.823 67.21 241.307 67.1371 241.79 67.1673C242.27 67.1377 242.751 67.2128 243.199 67.3875C243.647 67.5622 244.051 67.8323 244.384 68.1788C245.047 68.9889 245.373 70.0217 245.296 71.0648ZM239.556 71.0648C239.505 71.8076 239.702 72.5462 240.118 73.1646C240.331 73.39 240.588 73.5697 240.873 73.6925C241.158 73.8153 241.465 73.8787 241.775 73.8787C242.086 73.8787 242.393 73.8153 242.678 73.6925C242.963 73.5697 243.22 73.39 243.433 73.1646C243.796 72.5234 243.988 71.7992 243.988 71.0624C243.988 70.3256 243.796 69.6014 243.433 68.9603C243.235 68.7181 242.983 68.5268 242.696 68.4025C242.409 68.2782 242.097 68.2245 241.785 68.246C241.47 68.2246 241.155 68.2782 240.865 68.4024C240.575 68.5266 240.319 68.7178 240.118 68.9603C239.698 69.5783 239.5 70.3201 239.556 71.0648Z" fill="white"/>
<path d="M253.179 74.8281H251.671L247.972 68.8453H247.929L247.958 69.1809C248.006 69.8185 248.03 70.3985 248.03 70.9259V74.8281H246.935V67.3208H248.429L252.118 73.2701H252.147C252.147 73.1934 252.147 72.9058 252.103 72.412C252.06 71.9182 252.075 71.5299 252.075 71.2518V67.3208H253.179V74.8281Z" fill="white"/>
<path d="M259.497 72.7907C259.51 73.0908 259.452 73.3898 259.325 73.6626C259.199 73.9353 259.009 74.1739 258.772 74.3583C258.189 74.7686 257.485 74.9697 256.773 74.9288C256.056 74.9552 255.342 74.8209 254.684 74.5357V73.3756C255.035 73.5374 255.402 73.6642 255.779 73.7543C256.131 73.842 256.492 73.8886 256.855 73.8933C257.235 73.9239 257.614 73.826 257.931 73.6153C258.044 73.5275 258.134 73.4145 258.195 73.2854C258.256 73.1564 258.286 73.0148 258.282 72.8722C258.284 72.7369 258.256 72.6028 258.2 72.4794C258.145 72.356 258.062 72.2462 257.96 72.1579C257.561 71.8582 257.116 71.6236 256.644 71.4628C256.089 71.2719 255.592 70.9417 255.202 70.504C254.918 70.1384 254.769 69.6865 254.78 69.224C254.768 68.9418 254.822 68.6606 254.939 68.4033C255.056 68.146 255.232 67.9197 255.452 67.7427C255.968 67.3608 256.602 67.1709 257.244 67.2057C257.987 67.2144 258.72 67.3777 259.396 67.6851L259.002 68.6871C258.44 68.4315 257.833 68.2881 257.215 68.2652C256.891 68.2426 256.57 68.3342 256.307 68.5241C256.208 68.6078 256.128 68.713 256.075 68.8317C256.022 68.9504 255.996 69.0796 256 69.2096C255.994 69.3857 256.038 69.5598 256.125 69.713C256.229 69.8738 256.368 70.0083 256.533 70.1061C256.859 70.2931 257.2 70.4534 257.551 70.5855C257.979 70.7502 258.386 70.9659 258.762 71.2279C259 71.4048 259.194 71.6346 259.329 71.899C259.451 72.18 259.508 72.4847 259.497 72.7907Z" fill="white"/>
<path d="M135.705 59.0084C133.684 59.0084 132.159 58.3517 131.131 57.0383C130.103 55.7249 129.408 53.2674 129.047 49.6658C128.829 47.7931 128.613 45.3612 128.398 42.37C125.871 43.1274 123.327 43.9263 120.765 44.7668L118.925 49.8528C118.56 50.8115 118.31 51.5161 118.166 51.9284C118.022 52.3406 117.758 52.9638 117.378 53.7931C117.111 54.4235 116.789 55.0297 116.417 55.605C116.144 55.9837 115.764 56.4583 115.279 57.0431C114.872 57.5537 114.366 57.9762 113.79 58.2846C112.496 58.9294 111.067 59.258 109.62 59.2433C108.939 59.2655 108.262 59.1339 107.639 58.8584C107.016 58.5828 106.463 58.1704 106.022 57.6519C105.09 56.5632 104.599 55.1667 104.643 53.7355C104.644 53.2829 104.68 52.831 104.749 52.3837C105.22 48.9292 108.775 45.7782 115.413 42.9309C117.293 38.1373 120.416 30.0713 124.781 18.733C126.134 18.0412 127.643 17.7109 129.162 17.7743H131.626C132.295 17.7961 132.959 17.904 133.6 18.0954C133.639 19.7892 134.47 30.287 136.094 49.5891C136.238 51.2093 136.436 52.2623 136.689 52.7481C136.808 52.9851 136.995 53.1815 137.226 53.3122C137.457 53.4428 137.722 53.5018 137.986 53.4815C139.001 53.4815 140.347 52.796 142.021 51.425C143.787 49.9495 145.311 48.2076 146.537 46.2624L148.05 49.9342L146.753 51.6647C142.961 56.5605 139.279 59.0084 135.705 59.0084ZM108.477 52.5803C108.477 53.7339 108.909 54.3108 109.774 54.3108C110.414 54.3108 110.938 53.8426 111.345 52.9062C111.809 51.8996 112.531 50.134 113.511 47.6094C110.155 49.3063 108.477 50.9633 108.477 52.5803ZM127.096 27.1409L122.389 40.2656C124.915 39.4028 126.792 38.7637 128.019 38.3482L127.096 27.1409Z" fill="white"/>
<path d="M158.656 52.8536L159.958 40.8074C159.988 39.9333 159.721 39.0748 159.199 38.3722C158.69 37.7251 157.854 37.4135 156.682 37.4135C156.098 37.4158 155.524 37.5565 155.006 37.8241C154.488 38.0916 154.042 38.4784 153.703 38.9523C152.852 40.0772 152.319 41.41 152.161 42.8111C150.861 52.6794 150.174 58.0466 150.1 58.9126H142.794L145.772 33.4684C146.899 33.1346 148.062 32.935 149.236 32.874C151.65 32.874 152.914 33.756 153.026 35.5201C153.857 34.6829 154.848 34.0218 155.941 33.5762C157.034 33.1305 158.206 32.9097 159.386 32.9268C161.858 32.9268 163.799 33.5387 165.208 34.7627C165.886 35.331 166.427 36.0438 166.792 36.8485C167.157 37.6532 167.336 38.5294 167.317 39.4124C167.271 40.3772 167.162 41.3379 166.99 42.2886C166.164 47.7468 165.751 50.925 165.751 51.823C165.751 53.4815 166.312 54.3108 167.432 54.3108C169.889 54.3108 171.746 51.7542 173.005 46.6411C174.235 47.9194 174.974 48.9452 175.224 49.7186C173.303 56.0557 169.983 59.2242 165.266 59.2242C163.024 59.2242 161.364 58.5403 160.284 57.1726C159.259 55.963 158.684 54.4374 158.656 52.8536Z" fill="white"/>
<path d="M185.884 32.9175C187.751 32.8928 189.607 33.218 191.355 33.8762C192.408 33.2126 193.626 32.8572 194.871 32.8504C195.869 32.8095 196.865 32.9727 197.797 33.3297L195.847 48.5637C198.075 46.9272 200.109 45.0423 201.909 42.9456L203.48 46.2436C200.958 48.7981 198.203 51.1123 195.251 53.1559L193.81 64.4447C193.409 67.8354 192.3 70.4383 190.481 72.2534C188.662 74.0686 186.306 74.9778 183.414 74.981C181.663 74.9513 179.963 74.3857 178.543 73.3607C176.881 72.2055 176.05 70.3552 176.05 67.7954C176.05 64.6668 177.549 61.8035 180.547 59.2054C178.007 59.0535 175.628 57.9163 173.917 56.0368C172.076 54.0938 171.155 51.5564 171.155 48.4246C171.155 43.7046 172.545 39.9401 175.325 37.131C178.105 34.322 181.624 32.9175 185.884 32.9175ZM186.695 37.131C185.636 37.0938 184.584 37.3129 183.627 37.7694C182.671 38.226 181.84 38.9066 181.205 39.7531C179.85 41.498 179.049 44.0993 178.803 47.557C178.77 47.8627 178.752 48.1699 178.75 48.4774C178.75 50.2414 179.174 51.6459 180.023 52.6909C180.407 53.1901 180.903 53.5921 181.471 53.8644C182.039 54.1367 182.664 54.2717 183.294 54.2584C185.571 54.2584 187.286 52.6733 188.439 49.5032L189.77 37.783C188.794 37.3777 187.752 37.1567 186.695 37.131ZM180.201 67.0045C180.177 67.4241 180.24 67.8441 180.384 68.2388C180.529 68.6336 180.752 68.9948 181.041 69.3006C181.287 69.5639 181.585 69.7742 181.915 69.9184C182.246 70.0627 182.602 70.1379 182.963 70.1395C184.987 70.1395 186.159 68.8612 186.479 66.3046L187.402 58.1987C182.604 61.0461 180.204 63.9813 180.201 67.0045Z" fill="white"/>
<path d="M215.197 44.1005C216.298 42.7679 216.849 41.4801 216.849 40.2369C216.849 38.9938 216.516 38.1485 215.85 37.7011C215.204 37.2577 214.438 37.0219 213.655 37.0252C211.957 37.0252 210.47 37.9696 209.192 39.8582C207.877 41.8619 207.207 44.2183 207.271 46.6124C207.271 49.2233 207.892 51.1678 209.134 52.4461C209.73 53.0698 210.45 53.5624 211.247 53.8926C212.044 54.2228 212.902 54.3832 213.765 54.3635C216.468 54.3635 219.067 53.4272 221.562 51.5545C224.119 49.602 226.193 47.0896 227.624 44.2108C228.475 45.0409 229.204 45.9866 229.791 47.0198C228.599 49.717 226.487 52.363 223.454 54.9579C221.842 56.2737 220.023 57.3137 218.069 58.0354C216.022 58.8236 213.846 59.2267 211.652 59.2242C208.046 59.2242 205.195 58.1265 203.101 55.931C200.859 53.5534 199.738 50.5095 199.738 46.7993C199.738 43.0891 201.138 39.8487 203.937 37.078C205.239 35.7396 206.801 34.6803 208.527 33.9649C210.253 33.2495 212.108 32.893 213.977 32.9172C216.753 32.9172 219.009 33.5212 220.745 34.7291C221.561 35.258 222.232 35.9827 222.695 36.8368C223.158 37.691 223.4 38.6474 223.397 39.6186C223.426 40.9277 223.139 42.2246 222.559 43.3995C221.98 44.5743 221.125 45.5926 220.068 46.3679C217.848 48.1 214.806 49.3063 210.941 49.987L210.182 46.7993C212.427 46.3359 214.098 45.4363 215.197 44.1005Z" fill="white"/>
<path d="M232.63 59.2817C230.41 59.2817 228.67 58.6602 227.408 57.417C226.146 56.1739 225.506 54.4722 225.486 52.3119C225.486 51.7367 226.461 43.1834 228.412 26.652C228.918 22.4049 230.271 19.7221 232.471 18.6036C233.594 18.0367 234.84 17.7582 236.098 17.7935C240.863 17.7935 243.244 19.9906 243.241 24.3846C243.241 24.7442 243.241 25.1229 243.188 25.5159C242.845 30.3414 239.822 35.258 234.119 40.2657C233.936 42.0297 233.738 43.7394 233.523 45.3948C233.091 49.105 232.875 51.1583 232.875 51.5545C232.875 53.4272 233.686 54.3636 235.31 54.3636C237.078 54.3636 238.729 53.3457 240.263 51.3101C241.94 48.9627 243.144 46.3122 243.808 43.5061C244.306 43.7255 244.764 44.0269 245.162 44.3977C245.623 44.7567 246.025 45.1853 246.354 45.668C245.715 48.787 244.382 51.7228 242.453 54.2581C241.434 55.6705 240.124 56.8489 238.61 57.7142C236.797 58.7704 234.729 59.3124 232.63 59.2817ZM234.714 34.8634C238.035 31.2235 239.696 27.9638 239.696 25.0845C239.696 23.3588 239.043 22.4912 237.745 22.4912C236.914 22.5679 236.367 23.1048 236.093 24.1114C235.725 25.7311 235.472 27.3745 235.334 29.0296C235.099 31.297 234.95 32.7015 234.854 33.2431L234.714 34.8634Z" fill="white"/>
<path d="M44.9565 69.0272C44.0438 69.1231 43.1118 69.1854 42.1847 69.219C31.5271 69.5881 21.1576 65.7254 13.3495 58.4775C5.54145 51.2296 0.931886 41.188 0.531377 30.5541C0.21433 21.7915 2.36641 14.6491 7.49201 7.40125L7.92915 6.80206C7.92915 7.55944 7.96278 8.56609 8.06366 9.5248C8.47678 13.4747 9.61527 15.9386 10.9459 18.7955C11.2245 19.3995 11.5079 20.0179 11.7962 20.6794C12.877 23.1289 13.9915 25.6599 14.198 28.4018C14.2763 30.2173 14.2169 32.036 14.0203 33.8425C13.8681 35.3684 13.7991 36.9014 13.8137 38.4347C14.0466 44.7622 16.786 50.7389 21.4306 55.0528C26.0752 59.3667 32.2454 61.6652 38.5867 61.4438C39.1343 61.4438 39.6868 61.3863 40.2344 61.324C52.6857 60.0249 61.8032 48.5252 61.3709 36.0332C61.4006 34.1691 61.5611 32.3095 61.8513 30.4679C62.4854 27.5054 63.8448 24.7156 65.161 22.036C67.4813 17.2999 68.0193 12.6454 66.9721 5.84335C66.6233 3.91591 66.5393 1.95007 66.7223 0L67.9328 1.32302C75.0616 8.64758 80.5811 17.8656 80.9366 27.6876C81.2672 37.8355 77.7437 47.7335 71.0718 55.3993C64.3999 63.0651 55.0721 67.9326 44.9565 69.0272ZM6.84831 11.6004L6.29107 12.6646C3.55189 18.1907 2.27681 24.3249 2.58738 30.4822C2.96537 40.574 7.33863 50.1043 14.7481 56.9832C22.1576 63.862 31.9985 67.5279 42.1126 67.1769C42.9869 67.1434 43.8708 67.0858 44.7403 66.99C54.3453 65.957 63.2033 61.3366 69.5358 54.0564C75.8683 46.7761 79.2066 37.375 78.8806 27.7403C78.5971 19.7686 74.1393 11.6819 69.2731 5.37358L67.9953 3.87799L68.5861 5.72351C70.6469 12.5831 69.4892 17.7601 66.9625 22.9228C65.6414 25.6264 64.3924 28.1957 63.816 30.8897C63.5625 32.5656 63.4245 34.2569 63.4029 35.9517C63.8832 49.5174 53.9635 61.9471 40.4409 63.3612C39.8501 63.4283 39.2496 63.4667 38.6491 63.4907C31.7644 63.7302 25.0656 61.2348 20.0224 56.5519C14.9792 51.869 12.0035 45.381 11.7481 38.5114C11.7312 36.9108 11.8034 35.3105 11.9643 33.7179C12.1447 32.0177 12.2041 30.3069 12.142 28.5984C11.9451 26.2016 10.9459 23.9294 9.89389 21.5327C9.66811 21.0245 9.41351 20.5212 9.19734 20.0179C8.19336 17.8608 7.14614 15.6318 7.03085 12.8276L6.84831 11.6004Z" fill="white"/>
<path d="M71.2423 27.3865C71.0355 27.3851 70.8354 27.3132 70.6751 27.1828C70.5148 27.0525 70.4039 26.8714 70.3608 26.6695C70.3177 26.4677 70.3449 26.2572 70.4379 26.0729C70.5309 25.8885 70.6843 25.7415 70.8725 25.6559C77.0933 22.8706 77.1894 19.4621 77.1894 19.4238C77.1842 19.1843 77.2743 18.9525 77.44 18.7791C77.6056 18.6057 77.8333 18.5048 78.0733 18.4985C78.3119 18.4983 78.5414 18.5898 78.714 18.7541C78.8867 18.9184 78.9893 19.1428 79.0004 19.3806C79.0004 19.5676 79.0244 23.9828 71.617 27.3002C71.4997 27.3546 71.3717 27.3824 71.2423 27.3817V27.3865Z" fill="white"/>
<path d="M71.0068 35.0946C70.7839 35.0894 70.5708 35.0025 70.408 34.8506C70.2452 34.6987 70.144 34.4923 70.1238 34.2708C70.1037 34.0493 70.1659 33.8281 70.2985 33.6494C70.4312 33.4706 70.6252 33.3469 70.8434 33.3016C77.1556 32.1175 78.9377 27.3236 79.0098 27.1318C79.0901 26.9049 79.2574 26.719 79.4749 26.6152C79.6925 26.5113 79.9425 26.498 80.1699 26.5781C80.3973 26.6582 80.5835 26.8252 80.6876 27.0423C80.7916 27.2594 80.805 27.5089 80.7247 27.7358C80.6383 27.9755 78.5583 33.7043 71.1797 35.0802C71.1237 35.0849 71.0675 35.0849 71.0116 35.0802L71.0068 35.0946Z" fill="white"/>
<path d="M70.4597 42.9892C70.2189 42.9892 69.9879 42.8937 69.8177 42.7238C69.6474 42.5539 69.5518 42.3234 69.5518 42.0831C69.5518 41.8428 69.6474 41.6123 69.8177 41.4424C69.9879 41.2725 70.2189 41.177 70.4597 41.177C77.2378 41.1099 78.3859 35.4003 78.4339 35.1606C78.4894 34.9362 78.6288 34.7414 78.8235 34.6161C79.0183 34.4909 79.2536 34.4447 79.4814 34.487C79.7091 34.5292 79.9121 34.6568 80.0487 34.8435C80.1852 35.0303 80.2451 35.262 80.2161 35.4914C80.2161 35.5681 78.7317 42.9029 70.4789 42.9892H70.4597Z" fill="white"/>
<path d="M6.96854 28.5754C6.76898 28.5743 6.57514 28.5087 6.41611 28.3884C1.74206 24.8025 1.50187 20.8954 1.49707 20.718C1.49758 20.486 1.58729 20.263 1.74771 20.095C1.90813 19.927 2.12703 19.8268 2.35928 19.8151C2.59152 19.8034 2.8194 19.8811 2.99594 20.0322C3.17247 20.1832 3.2842 20.3961 3.30808 20.627C3.30808 20.766 3.56268 23.9012 7.52578 26.9406C7.67474 27.0566 7.78373 27.2161 7.83754 27.3969C7.89135 27.5777 7.8873 27.7707 7.82597 27.949C7.76463 28.1274 7.64906 28.2822 7.49536 28.3919C7.34166 28.5016 7.1575 28.5607 6.96854 28.561V28.5754Z" fill="white"/>
<path d="M5.93512 33.6515C5.80782 33.652 5.68182 33.6258 5.56524 33.5748C0.329146 31.2449 0.67982 26.7914 0.694232 26.6044C0.715253 26.3647 0.830815 26.1432 1.0155 25.9886C1.20018 25.8339 1.43885 25.7588 1.679 25.7798C1.91916 25.8008 2.14112 25.9161 2.29608 26.1004C2.45103 26.2847 2.52627 26.5229 2.50525 26.7626C2.50525 26.916 2.29868 30.1184 6.30501 31.9209C6.49322 32.0064 6.64653 32.1535 6.73957 32.3378C6.83261 32.5221 6.85982 32.7326 6.81668 32.9345C6.77354 33.1363 6.66264 33.3174 6.50233 33.4478C6.34203 33.5782 6.14192 33.6501 5.93512 33.6515Z" fill="white"/>
<path d="M4.98958 39.3367C4.93441 39.3319 4.87976 39.3222 4.82625 39.308C0.925604 38.6081 0.632575 32.8937 0.618164 32.654C0.633022 32.4295 0.731036 32.2185 0.893134 32.0622C1.05523 31.9058 1.26982 31.8153 1.49514 31.8081C1.72046 31.8009 1.9404 31.8776 2.11215 32.0234C2.28391 32.1691 2.3952 32.3733 2.42437 32.5964C2.42437 32.6444 2.69819 37.1171 5.1433 37.5678C5.37284 37.6001 5.58115 37.7192 5.72511 37.9005C5.86907 38.0818 5.93765 38.3114 5.91667 38.5418C5.89568 38.7722 5.78673 38.9857 5.61236 39.1381C5.438 39.2906 5.21158 39.3703 4.97997 39.3607L4.98958 39.3367Z" fill="white"/>
<path d="M68.3887 51.1623H68.1726C67.9318 51.1623 67.7008 51.0669 67.5306 50.8969C67.3603 50.727 67.2646 50.4966 67.2646 50.2563C67.2646 50.016 67.3603 49.7855 67.5306 49.6156C67.7008 49.4457 67.9318 49.3502 68.1726 49.3502C74.8498 49.4365 75.7961 44.5562 75.8345 44.3597C75.8753 44.1226 76.0088 43.9113 76.2056 43.7724C76.4025 43.6335 76.6466 43.5783 76.8842 43.619C77.1218 43.6597 77.3334 43.7929 77.4726 43.9894C77.6118 44.1858 77.6671 44.4294 77.6263 44.6665C77.6263 44.7288 76.4302 51.1623 68.3599 51.1623H68.3887Z" fill="white"/>
<path d="M33.4224 56.8514H33.2591L33.0957 56.8131L32.9372 56.7747L32.7787 56.7268C31.9072 56.4513 31.1302 55.9383 30.5353 55.2456C29.877 54.4794 29.3788 53.5895 29.0702 52.6283C28.7063 51.5345 28.5119 50.3916 28.4937 49.2393C28.4707 47.961 28.621 46.6856 28.9405 45.4475C29.2278 44.2893 29.6672 43.1739 30.2471 42.1304C30.7594 41.1985 31.4069 40.3472 32.1686 39.6042C32.8351 38.95 33.6211 38.4293 34.484 38.0703C35.2647 37.7494 36.1153 37.6354 36.9531 37.7395L37.1165 37.7683L37.275 37.797L37.4383 37.8354L37.5969 37.8785C38.4693 38.1379 39.2515 38.6361 39.8546 39.3166C40.5183 40.0833 41.0213 40.9748 41.3342 41.9387C41.6994 43.0391 41.897 44.1879 41.9202 45.3469C41.9461 46.6395 41.7958 47.9296 41.4735 49.1817C41.1776 50.3531 40.7303 51.481 40.1428 52.5372C39.6326 53.469 38.9849 54.319 38.2213 55.0586C37.5489 55.7074 36.7558 56.2187 35.8867 56.5638C35.106 56.8782 34.2562 56.9824 33.4224 56.8658M37.2318 35.6879C36.1677 35.5557 35.0874 35.6857 34.0853 36.0666C33.0076 36.4773 32.018 37.089 31.1694 37.8689C30.2183 38.7485 29.4083 39.7686 28.7676 40.8937C28.0513 42.1436 27.5099 43.4855 27.1583 44.8819C26.7777 46.3849 26.6159 47.9347 26.6779 49.4837C26.724 50.8924 26.9914 52.2851 27.4705 53.611C27.892 54.7977 28.5451 55.8894 29.392 56.8227C30.1714 57.6845 31.166 58.3247 32.2743 58.6778L32.4953 58.7401L32.7114 58.7928L32.9324 58.8407L33.1486 58.8791C34.2087 59.0302 35.2898 58.9165 36.295 58.5483C37.3801 58.1453 38.3768 57.5365 39.2301 56.7556C40.1962 55.8782 41.0195 54.8561 41.6704 53.726C42.4011 52.4713 42.9524 51.1208 43.3085 49.7138C43.7023 48.195 43.8706 46.6268 43.8081 45.0593C43.759 43.6363 43.4834 42.2302 42.9915 40.8937C42.5621 39.7017 41.8972 38.608 41.0363 37.6772C40.241 36.8199 39.2313 36.1896 38.1109 35.8508L37.8899 35.7933L37.6737 35.7406L37.4527 35.7023L37.2318 35.6639" fill="white"/>
<path d="M43.2845 32.8508C42.9579 32.8028 42.6264 32.7549 42.2901 32.6926C41.9539 32.6303 41.608 32.5679 41.2573 32.4912C40.9067 32.4145 40.5512 32.333 40.1909 32.2419C39.8306 32.1509 39.4607 32.0502 39.0908 31.9447C38.0328 31.6437 36.992 31.2852 35.9732 30.8709C35.1868 30.5539 34.4201 30.1905 33.677 29.7826C33.1408 29.4894 32.6255 29.1594 32.135 28.7951C31.8275 28.5709 31.5456 28.3137 31.2943 28.0281L30.9965 27.6781L31.4192 27.5295C31.6364 27.4563 31.86 27.4033 32.087 27.3713C32.4055 27.3248 32.7261 27.2944 33.0477 27.2802C33.4686 27.2591 33.8902 27.2591 34.3111 27.2802C34.7915 27.2802 35.3007 27.3473 35.8627 27.4192C36.1846 27.4624 36.516 27.5151 36.8523 27.5726C37.1885 27.6302 37.5344 27.6925 37.8851 27.7692C38.2358 27.8459 38.5864 27.9274 38.9467 28.0137C39.307 28.1 39.6721 28.2006 40.0372 28.3061C41.1011 28.6066 42.1482 28.9635 43.174 29.3752C43.9751 29.6996 44.7562 30.071 45.5134 30.4874C46.064 30.785 46.5937 31.1198 47.0987 31.4893C47.4104 31.7155 47.6971 31.9742 47.9538 32.2611L48.2564 32.6207L47.8241 32.7693C47.6035 32.841 47.3767 32.8924 47.1467 32.9227C46.8189 32.972 46.4885 33.0024 46.1572 33.0138C45.7777 33.0138 45.3453 33.0138 44.8697 33.0138C44.3942 33.0138 43.8706 32.9371 43.2989 32.8652M36.0501 25.4058C35.3487 25.3195 34.6089 25.2523 33.8836 25.2332C33.1923 25.2131 32.5007 25.258 31.818 25.3674C31.2357 25.4557 30.6771 25.6594 30.1751 25.9666C29.7304 26.2483 29.4107 26.6892 29.2816 27.1987C29.2038 27.5793 29.2167 27.9729 29.3193 28.3476C29.422 28.7224 29.6114 29.0678 29.8724 29.356C30.5317 30.1271 31.322 30.7762 32.2071 31.2736C33.2344 31.881 34.3072 32.4084 35.416 32.8508C36.4613 33.2737 37.5275 33.6434 38.6105 33.9582C38.9948 34.0684 39.3743 34.1739 39.7538 34.2698C40.1332 34.3657 40.5079 34.452 40.8826 34.5335C41.2573 34.615 41.6272 34.6869 41.9923 34.7492C42.3574 34.8115 42.7177 34.869 43.0683 34.917L43.7889 35.0033C44.0291 35.0272 44.2693 35.0512 44.4854 35.0656C44.7016 35.08 44.9322 35.0944 45.1484 35.1039H45.7825C46.3394 35.1037 46.8953 35.0572 47.4446 34.9649C47.8825 34.8992 48.3093 34.7734 48.7127 34.591C49.0382 34.449 49.3309 34.2418 49.5726 33.9822C49.7912 33.7409 49.9463 33.4494 50.0242 33.1336C50.1043 32.7471 50.0907 32.3471 49.9846 31.9668C49.8784 31.5866 49.6829 31.2371 49.4141 30.9476C48.7333 30.164 47.9204 29.5053 47.0122 29.0012C45.9705 28.3927 44.8832 27.8654 43.7601 27.424C42.7104 27.001 41.6393 26.633 40.5512 26.3214L39.9939 26.1728C39.7201 26.1057 39.3743 26.0146 38.9707 25.9235C38.5672 25.8324 38.1013 25.7365 37.6065 25.6455C37.1117 25.5544 36.5833 25.4633 36.0501 25.4058Z" fill="white"/>
</g>
<defs>
<clipPath id="clip0_14_3">
<rect width="259" height="75" fill="white" transform="translate(0.5)"/>
</clipPath>
</defs>
</svg>
