<svg width="277" height="284" viewBox="0 0 277 284" fill="none" xmlns="http://www.w3.org/2000/svg">
<g clip-path="url(#clip0_14_43)">
<g filter="url(#filter0_d_14_43)">
<path d="M195.067 213.474C230.376 213.474 259 184.832 259 149.5C259 114.168 230.376 85.5254 195.067 85.5254C159.758 85.5254 131.135 114.168 131.135 149.5C131.135 184.832 159.758 213.474 195.067 213.474Z" fill="white"/>
<path d="M130.767 252.912C161.133 252.912 185.749 225.41 185.749 191.484C185.749 157.559 161.133 130.057 130.767 130.057C100.402 130.057 75.7861 157.559 75.7861 191.484C75.7861 225.41 100.402 252.912 130.767 252.912Z" fill="#E5F3FA"/>
<path d="M39.2169 270.062C81.9376 270.062 116.57 240.551 116.57 204.149C116.57 167.746 81.9376 138.236 39.2169 138.236C-3.50378 138.236 -38.1357 167.746 -38.1357 204.149C-38.1357 240.551 -3.50378 270.062 39.2169 270.062Z" fill="#E5F3FA"/>
<path d="M-47.2852 284C-20.8171 284 0.639496 262.529 0.639496 236.044C0.639496 209.559 -20.8171 188.088 -47.2852 188.088C-73.7533 188.088 -95.21 209.559 -95.21 236.044C-95.21 262.529 -73.7533 284 -47.2852 284Z" fill="#E5F3FA"/>
<path d="M196.467 210.191C224.841 210.191 247.842 190.203 247.842 165.547C247.842 140.89 224.841 120.902 196.467 120.902C168.093 120.902 145.092 140.89 145.092 165.547C145.092 190.203 168.093 210.191 196.467 210.191Z" fill="#A2D2DF"/>
<path d="M134.571 247.69C160.851 247.69 182.156 226.371 182.156 200.073C182.156 173.776 160.851 152.457 134.571 152.457C108.29 152.457 86.9854 173.776 86.9854 200.073C86.9854 226.371 108.29 247.69 134.571 247.69Z" fill="#A2D2DF"/>
<path d="M42.5393 257.793C79.1682 257.793 108.862 236.475 108.862 210.177C108.862 183.879 79.1682 162.561 42.5393 162.561C5.9104 162.561 -23.7832 183.879 -23.7832 210.177C-23.7832 236.475 5.9104 257.793 42.5393 257.793Z" fill="#A2D2DF"/>
<path d="M177.9 214.026C214.146 214.026 243.53 187.975 243.53 155.839C243.53 123.703 214.146 97.6523 177.9 97.6523C141.654 97.6523 112.271 123.703 112.271 155.839C112.271 187.975 141.654 214.026 177.9 214.026Z" fill="white"/>
<path d="M-30.7682 128.854C17.6929 128.854 56.9784 100.009 56.9784 64.4271C56.9784 28.845 17.6929 0 -30.7682 0C-79.2292 0 -118.515 28.845 -118.515 64.4271C-118.515 100.009 -79.2292 128.854 -30.7682 128.854Z" fill="white"/>
<path d="M91.9495 149.146C121.3 149.146 145.092 125.338 145.092 95.9685C145.092 66.5994 121.3 42.791 91.9495 42.791C62.5995 42.791 38.8066 66.5994 38.8066 95.9685C38.8066 125.338 62.5995 149.146 91.9495 149.146Z" fill="white"/>
<path d="M135.32 172.763C159.562 172.763 179.215 153.098 179.215 128.84C179.215 104.582 159.562 84.917 135.32 84.917C111.078 84.917 91.4258 104.582 91.4258 128.84C91.4258 153.098 111.078 172.763 135.32 172.763Z" fill="white"/>
<path d="M130.173 238.464C155.688 238.464 176.373 217.766 176.373 192.234C176.373 166.702 155.688 146.004 130.173 146.004C104.658 146.004 83.9736 166.702 83.9736 192.234C83.9736 217.766 104.658 238.464 130.173 238.464Z" fill="#E5F3FA"/>
<path d="M58.4915 234.261C84.0068 234.261 104.691 213.563 104.691 188.031C104.691 162.499 84.0068 141.802 58.4915 141.802C32.9762 141.802 12.292 162.499 12.292 188.031C12.292 213.563 32.9762 234.261 58.4915 234.261Z" fill="#E5F3FA"/>
<path d="M-36.0714 217.422C-5.97942 217.422 18.4149 194.051 18.4149 165.221C18.4149 136.391 -5.97942 113.02 -36.0714 113.02C-66.1633 113.02 -90.5576 136.391 -90.5576 165.221C-90.5576 194.051 -66.1633 217.422 -36.0714 217.422Z" fill="#E5F3FA"/>
<path d="M-15.9771 189.631C29.4459 189.631 66.2685 161.768 66.2685 127.397C66.2685 93.0261 29.4459 65.1631 -15.9771 65.1631C-61.4001 65.1631 -98.2227 93.0261 -98.2227 127.397C-98.2227 161.768 -61.4001 189.631 -15.9771 189.631Z" fill="#E5F3FA"/>
<path d="M87.6077 177.121C113.123 177.121 133.807 156.424 133.807 130.892C133.807 105.36 113.123 84.6621 87.6077 84.6621C62.0924 84.6621 41.4082 105.36 41.4082 130.892C41.4082 156.424 62.0924 177.121 87.6077 177.121Z" fill="#E5F3FA"/>
<path d="M130.173 207.757C155.688 207.757 176.373 187.059 176.373 161.527C176.373 135.996 155.688 115.298 130.173 115.298C104.658 115.298 83.9736 135.996 83.9736 161.527C83.9736 187.059 104.658 207.757 130.173 207.757Z" fill="#E5F3FA"/>
<path d="M-21.7186 176.796C6.06939 176.796 28.596 161.515 28.596 142.665C28.596 123.815 6.06939 108.534 -21.7186 108.534C-49.5066 108.534 -72.0332 123.815 -72.0332 142.665C-72.0332 161.515 -49.5066 176.796 -21.7186 176.796Z" fill="#E5F3FA"/>
<path d="M48.4648 202.366C79.5642 202.366 104.775 188.124 104.775 170.556C104.775 152.988 79.5642 138.746 48.4648 138.746C17.3653 138.746 -7.8457 152.988 -7.8457 170.556C-7.8457 188.124 17.3653 202.366 48.4648 202.366Z" fill="#E5F3FA"/>
<path d="M107.378 221.441C130.074 221.441 148.472 207.199 148.472 189.631C148.472 172.062 130.074 157.82 107.378 157.82C84.6819 157.82 66.2832 172.062 66.2832 189.631C66.2832 207.199 84.6819 221.441 107.378 221.441Z" fill="#E5F3FA"/>
</g>
</g>
<defs>
<filter id="filter0_d_14_43" x="-305.47" y="-13.47" width="584.92" height="317.92" filterUnits="userSpaceOnUse" color-interpolation-filters="sRGB">
<feFlood flood-opacity="0" result="BackgroundImageFix"/>
<feColorMatrix in="SourceAlpha" type="matrix" values="0 0 0 0 0 0 0 0 0 0 0 0 0 0 0 0 0 0 127 0" result="hardAlpha"/>
<feOffset dx="3.49" dy="3.49"/>
<feGaussianBlur stdDeviation="8.48"/>
<feColorMatrix type="matrix" values="0 0 0 0 0.113725 0 0 0 0 0.113725 0 0 0 0 0.105882 0 0 0 0.4 0"/>
<feBlend mode="normal" in2="BackgroundImageFix" result="effect1_dropShadow_14_43"/>
<feBlend mode="normal" in="SourceGraphic" in2="effect1_dropShadow_14_43" result="shape"/>
</filter>
<clipPath id="clip0_14_43">
<rect width="569" height="284" fill="white" transform="translate(-292)"/>
</clipPath>
</defs>
</svg>
