<svg width="292" height="284" viewBox="0 0 292 284" fill="none" xmlns="http://www.w3.org/2000/svg">
<g clip-path="url(#clip0_14_80)">
<g filter="url(#filter0_d_14_80)">
<path d="M347.217 270.062C389.938 270.062 424.57 240.551 424.57 204.149C424.57 167.746 389.938 138.236 347.217 138.236C304.496 138.236 269.864 167.746 269.864 204.149C269.864 240.551 304.496 270.062 347.217 270.062Z" fill="#E5F3FA"/>
<path d="M260.715 284C287.183 284 308.639 262.529 308.639 236.044C308.639 209.559 287.183 188.088 260.715 188.088C234.247 188.088 212.79 209.559 212.79 236.044C212.79 262.529 234.247 284 260.715 284Z" fill="#E5F3FA"/>
<path d="M170.083 270.048C202.081 270.048 228.02 248.577 228.02 222.092C228.02 195.606 202.081 174.136 170.083 174.136C138.086 174.136 112.146 195.606 112.146 222.092C112.146 248.577 138.086 270.048 170.083 270.048Z" fill="#E5F3FA"/>
<path d="M101.187 236.044C121.532 236.044 138.025 222.182 138.025 205.083C138.025 187.983 121.532 174.122 101.187 174.122C80.8416 174.122 64.3486 187.983 64.3486 205.083C64.3486 222.182 80.8416 236.044 101.187 236.044Z" fill="#E5F3FA"/>
<path d="M69.7226 205.083C93.1526 205.083 112.146 180.014 112.146 149.09C112.146 118.165 93.1526 93.0962 69.7226 93.0962C46.2926 93.0962 27.2988 118.165 27.2988 149.09C27.2988 180.014 46.2926 205.083 69.7226 205.083Z" fill="#E5F3FA"/>
<path d="M350.539 257.793C387.168 257.793 416.862 236.475 416.862 210.177C416.862 183.879 387.168 162.561 350.539 162.561C313.91 162.561 284.217 183.879 284.217 210.177C284.217 236.475 313.91 257.793 350.539 257.793Z" fill="#A2D2DF"/>
<path d="M260.715 274.802C286.566 274.802 307.522 251.234 307.522 222.162C307.522 193.09 286.566 169.522 260.715 169.522C234.864 169.522 213.907 193.09 213.907 222.162C213.907 251.234 234.864 274.802 260.715 274.802Z" fill="#A2D2DF"/>
<path d="M170.083 257.793C202.081 257.793 228.02 231.837 228.02 199.819C228.02 167.8 202.081 141.844 170.083 141.844C138.086 141.844 112.146 167.8 112.146 199.819C112.146 231.837 138.086 257.793 170.083 257.793Z" fill="#A2D2DF"/>
<path d="M108.852 226.167C130.462 226.167 147.98 208.637 147.98 187.013C147.98 165.388 130.462 147.858 108.852 147.858C87.2412 147.858 69.7227 165.388 69.7227 187.013C69.7227 208.637 87.2412 226.167 108.852 226.167Z" fill="#A2D2DF"/>
<path d="M72.9473 201.729C98.1502 201.729 118.581 179.264 118.581 151.552C118.581 123.839 98.1502 101.374 72.9473 101.374C47.7444 101.374 27.3135 123.839 27.3135 151.552C27.3135 179.264 47.7444 201.729 72.9473 201.729Z" fill="#A2D2DF"/>
<path d="M277.232 128.854C325.693 128.854 364.978 100.009 364.978 64.4271C364.978 28.845 325.693 0 277.232 0C228.771 0 189.485 28.845 189.485 64.4271C189.485 100.009 228.771 128.854 277.232 128.854Z" fill="white"/>
<path d="M160.75 138.845C187.398 138.845 209 114.346 209 84.1247C209 53.9037 187.398 29.4048 160.75 29.4048C134.102 29.4048 112.5 53.9037 112.5 84.1247C112.5 114.346 134.102 138.845 160.75 138.845Z" fill="white"/>
<path d="M106.377 193.564C133.025 193.564 154.627 169.065 154.627 138.844C154.627 108.623 133.025 84.1245 106.377 84.1245C79.7292 84.1245 58.127 108.623 58.127 138.844C58.127 169.065 79.7292 193.564 106.377 193.564Z" fill="white"/>
<path d="M64.25 203.866C90.8977 203.866 112.5 179.367 112.5 149.146C112.5 118.925 90.8977 94.4263 64.25 94.4263C37.6022 94.4263 16 118.925 16 149.146C16 179.367 37.6022 203.866 64.25 203.866Z" fill="white"/>
<path d="M271.929 217.422C302.021 217.422 326.415 194.051 326.415 165.221C326.415 136.391 302.021 113.02 271.929 113.02C241.837 113.02 217.442 136.391 217.442 165.221C217.442 194.051 241.837 217.422 271.929 217.422Z" fill="#E5F3FA"/>
<path d="M157.936 229.351C197.181 229.351 228.996 200.075 228.996 163.962C228.996 127.848 197.181 98.5723 157.936 98.5723C118.691 98.5723 86.876 127.848 86.876 163.962C86.876 200.075 118.691 229.351 157.936 229.351Z" fill="#E5F3FA"/>
<path d="M60.5737 202.437C81.5748 202.437 98.5995 185.401 98.5995 164.386C98.5995 143.371 81.5748 126.335 60.5737 126.335C39.5726 126.335 22.5479 143.371 22.5479 164.386C22.5479 185.401 39.5726 202.437 60.5737 202.437Z" fill="#E5F3FA"/>
<path d="M179.416 136.623C200.418 136.623 217.442 119.587 217.442 98.5721C217.442 77.5573 200.418 60.5215 179.416 60.5215C158.415 60.5215 141.391 77.5573 141.391 98.5721C141.391 119.587 158.415 136.623 179.416 136.623Z" fill="#E5F3FA"/>
<path d="M292.023 189.631C337.446 189.631 374.268 161.768 374.268 127.397C374.268 93.0261 337.446 65.1631 292.023 65.1631C246.6 65.1631 209.777 93.0261 209.777 127.397C209.777 161.768 246.6 189.631 292.023 189.631Z" fill="#E5F3FA"/>
<path d="M286.281 176.796C314.069 176.796 336.596 161.515 336.596 142.665C336.596 123.815 314.069 108.534 286.281 108.534C258.493 108.534 235.967 123.815 235.967 142.665C235.967 161.515 258.493 176.796 286.281 176.796Z" fill="#E5F3FA"/>
<path d="M222.245 200.385C258.307 193.24 284.097 170.047 279.85 148.581C275.602 127.116 242.925 115.507 206.864 122.652C170.802 129.797 145.012 152.99 149.259 174.456C153.507 195.921 186.184 207.53 222.245 200.385Z" fill="#E5F3FA"/>
</g>
</g>
<defs>
<filter id="filter0_d_14_80" x="2.53" y="-13.47" width="584.92" height="317.92" filterUnits="userSpaceOnUse" color-interpolation-filters="sRGB">
<feFlood flood-opacity="0" result="BackgroundImageFix"/>
<feColorMatrix in="SourceAlpha" type="matrix" values="0 0 0 0 0 0 0 0 0 0 0 0 0 0 0 0 0 0 127 0" result="hardAlpha"/>
<feOffset dx="3.49" dy="3.49"/>
<feGaussianBlur stdDeviation="8.48"/>
<feColorMatrix type="matrix" values="0 0 0 0 0.113725 0 0 0 0 0.113725 0 0 0 0 0.105882 0 0 0 0.4 0"/>
<feBlend mode="normal" in2="BackgroundImageFix" result="effect1_dropShadow_14_80"/>
<feBlend mode="normal" in="SourceGraphic" in2="effect1_dropShadow_14_80" result="shape"/>
</filter>
<clipPath id="clip0_14_80">
<rect width="567" height="284" fill="white"/>
</clipPath>
</defs>
</svg>
