<svg width="1920" height="617" viewBox="0 0 1920 617" fill="none" xmlns="http://www.w3.org/2000/svg">
<g filter="url(#filter0_d_14_622)">
<path d="M-155.296 435.548C-155.296 522.017 -110.473 592.111 -55.1968 592.111C0.0792542 592.111 44.9028 522.017 44.9028 435.548C44.9028 409.857 40.9199 385.635 33.9024 364.247C56.4933 360.363 76.0917 347.819 89.1152 330.158C113.455 352.123 145.951 365.533 181.628 365.533C239.939 365.533 289.715 329.712 309.355 279.3C330.092 308.193 360.986 326.537 395.483 326.537C404.503 326.537 413.269 325.251 421.699 322.889C440.264 404.818 512.884 465.937 599.644 465.937C643.224 465.937 683.243 450.506 714.643 424.762C738.435 463.811 774.85 488.82 815.69 488.82C818.346 488.82 820.98 488.689 823.593 488.479C842.918 560.856 900.006 613.341 967.441 613.341C986.745 613.341 1005.16 609.011 1022.13 601.165C1039.05 621.634 1060.25 633.836 1083.28 633.836C1138.56 633.836 1183.38 563.743 1183.38 477.274C1183.38 451.582 1179.4 427.36 1172.38 405.973C1194.97 402.089 1214.57 389.545 1227.59 371.884C1251.93 393.849 1284.43 407.259 1320.11 407.259C1378.42 407.259 1428.19 371.438 1447.83 321.026C1468.57 349.919 1499.47 368.262 1533.96 368.262C1542.98 368.262 1551.75 366.976 1560.18 364.615C1578.74 446.544 1651.36 507.663 1738.12 507.663C1781.7 507.663 1821.72 492.232 1853.12 466.488C1876.91 505.537 1913.33 530.546 1954.17 530.546C1956.83 530.546 1959.46 530.415 1962.07 530.205C1981.4 602.582 2038.49 655.067 2105.92 655.067C2189.25 655.067 2256.79 574.975 2256.79 476.198C2256.79 377.421 2189.25 297.329 2105.92 297.329C2095.78 297.329 2085.9 298.536 2076.33 300.793C2058.36 234.452 2010.46 187.005 1954.17 187.005C1928.65 187.005 1904.86 196.794 1884.8 213.642C1851.54 168.399 1798.23 139.087 1738.12 139.087C1699.47 139.087 1663.65 151.211 1634.15 171.916C1615.22 129.219 1577.48 100.09 1533.98 100.09C1484.61 100.09 1442.67 137.591 1427.22 189.892C1402.17 158.952 1363.52 139.113 1320.11 139.113C1256.42 139.113 1202.92 181.809 1187.7 239.595C1178.28 236.131 1168.13 234.216 1157.5 234.216C1123.3 234.216 1093.74 253.871 1079.55 282.476C1058.31 250.696 1024.26 230.096 985.86 230.096C966.872 230.096 948.96 235.16 933.134 244.083C912.397 185.746 867.616 145.359 815.69 145.359C790.17 145.359 766.378 155.147 746.316 171.995C713.062 126.753 659.746 97.4397 599.644 97.4397C560.995 97.4397 525.17 109.564 495.667 130.269C476.743 87.5725 439 58.4434 395.504 58.4434C346.129 58.4434 304.192 95.9439 288.745 148.245C263.689 117.305 225.04 97.466 181.628 97.466C117.944 97.466 64.438 140.162 49.2229 197.948C39.803 194.484 29.6455 192.569 19.0244 192.569C-28.9812 192.569 -67.9041 231.329 -67.9041 279.117C-67.9041 279.536 -67.883 279.983 -67.862 280.402C-117.174 290.138 -155.317 355.928 -155.317 435.679L-155.296 435.548Z" fill="#E5F3FA"/>
</g>
<g filter="url(#filter1_d_14_622)">
<path d="M1954.21 530.441C2025.88 530.441 2083.98 453.543 2083.98 358.684C2083.98 263.825 2025.88 186.927 1954.21 186.927C1882.54 186.927 1824.44 263.825 1824.44 358.684C1824.44 453.543 1882.54 530.441 1954.21 530.441Z" fill="#E5F3FA"/>
<path d="M1738.19 507.584C1839 507.584 1920.73 425.069 1920.73 323.283C1920.73 221.496 1839 138.982 1738.19 138.982C1637.37 138.982 1555.65 221.496 1555.65 323.283C1555.65 425.069 1637.37 507.584 1738.19 507.584Z" fill="#E5F3FA"/>
<path d="M1534.03 368.21C1596.49 368.21 1647.13 308.172 1647.13 234.111C1647.13 160.05 1596.49 100.012 1534.03 100.012C1471.56 100.012 1420.92 160.05 1420.92 234.111C1420.92 308.172 1471.56 368.21 1534.03 368.21Z" fill="#E5F3FA"/>
<path d="M1320.17 407.207C1395.69 407.207 1456.92 347.168 1456.92 273.107C1456.92 199.047 1395.69 139.008 1320.17 139.008C1244.65 139.008 1183.42 199.047 1183.42 273.107C1183.42 347.168 1244.65 407.207 1320.17 407.207Z" fill="#E5F3FA"/>
<path d="M1157.55 407.206C1205.56 407.206 1244.48 368.457 1244.48 320.658C1244.48 272.859 1205.56 234.111 1157.55 234.111C1109.54 234.111 1070.62 272.859 1070.62 320.658C1070.62 368.457 1109.54 407.206 1157.55 407.206Z" fill="#E5F3FA"/>
<path d="M1083.33 633.784C1138.61 633.784 1183.42 563.688 1183.42 477.221C1183.42 390.754 1138.61 320.658 1083.33 320.658C1028.04 320.658 983.226 390.754 983.226 477.221C983.226 563.688 1028.04 633.784 1083.33 633.784Z" fill="#E5F3FA"/>
</g>
<path d="M1963.19 685.587C2025.2 685.587 2075.47 625.983 2075.47 552.459C2075.47 478.934 2025.2 419.331 1963.19 419.331C1901.18 419.331 1850.91 478.934 1850.91 552.459C1850.91 625.983 1901.18 685.587 1963.19 685.587Z" fill="#A2D2DF"/>
<path d="M1745.98 439.564C1832.42 439.564 1902.5 379.96 1902.5 306.435C1902.5 232.911 1832.42 173.307 1745.98 173.307C1659.54 173.307 1589.47 232.911 1589.47 306.435C1589.47 379.96 1659.54 439.564 1745.98 439.564Z" fill="#A2D2DF"/>
<path d="M1534.03 420.092C1595.02 420.092 1644.47 354.202 1644.47 272.924C1644.47 191.645 1595.02 125.756 1534.03 125.756C1473.03 125.756 1423.58 191.645 1423.58 272.924C1423.58 354.202 1473.03 420.092 1534.03 420.092Z" fill="#A2D2DF"/>
<path d="M1320.17 497.534C1395.69 497.534 1456.92 424.947 1456.92 335.407C1456.92 245.868 1395.69 173.281 1320.17 173.281C1244.65 173.281 1183.42 245.868 1183.42 335.407C1183.42 424.947 1244.65 497.534 1320.17 497.534Z" fill="#A2D2DF"/>
<path d="M1090.91 610.665C1150.38 610.665 1198.6 547.854 1198.6 470.372C1198.6 392.891 1150.38 330.08 1090.91 330.08C1031.44 330.08 983.226 392.891 983.226 470.372C983.226 547.854 1031.44 610.665 1090.91 610.665Z" fill="#A2D2DF"/>
<path d="M1169.81 658.898C1232.7 658.898 1283.67 590.401 1283.67 505.904C1283.67 421.408 1232.7 352.911 1169.81 352.911C1106.93 352.911 1055.95 421.408 1055.95 505.904C1055.95 590.401 1106.93 658.898 1169.81 658.898Z" fill="white"/>
<path d="M970.75 529.575C1021.75 529.575 1063.09 480.558 1063.09 420.092C1063.09 359.625 1021.75 310.608 970.75 310.608C919.749 310.608 878.405 359.625 878.405 420.092C878.405 480.558 919.749 529.575 970.75 529.575Z" fill="#A2D2DF"/>
<path d="M1070.41 630.084C1133.29 630.084 1184.27 561.587 1184.27 477.09C1184.27 392.594 1133.29 324.097 1070.41 324.097C1007.52 324.097 956.547 392.594 956.547 477.09C956.547 561.587 1007.52 630.084 1070.41 630.084Z" fill="white"/>
<path d="M1952.8 703.668C2013.02 703.668 2061.84 645.792 2061.84 574.398C2061.84 503.004 2013.02 445.127 1952.8 445.127C1892.58 445.127 1843.77 503.004 1843.77 574.398C1843.77 645.792 1892.58 703.668 1952.8 703.668Z" fill="#E5F3FA"/>
<path d="M1783.64 559.912C1843.86 559.912 1892.68 502.035 1892.68 430.641C1892.68 359.247 1843.86 301.371 1783.64 301.371C1723.42 301.371 1674.61 359.247 1674.61 430.641C1674.61 502.035 1723.42 559.912 1783.64 559.912Z" fill="#E5F3FA"/>
<path d="M1560.49 578.124C1631.51 578.124 1689.09 512.775 1689.09 432.163C1689.09 351.551 1631.51 286.202 1560.49 286.202C1489.48 286.202 1431.9 351.551 1431.9 432.163C1431.9 512.775 1489.48 578.124 1560.49 578.124Z" fill="#E5F3FA"/>
<path d="M1257.56 618.511C1331.46 618.511 1391.36 536.655 1391.36 435.68C1391.36 334.705 1331.46 252.848 1257.56 252.848C1183.67 252.848 1123.77 334.705 1123.77 435.68C1123.77 536.655 1183.67 618.511 1257.56 618.511Z" fill="white"/>
<path d="M1061.73 540.86C1111.29 540.86 1151.48 493.217 1151.48 434.447C1151.48 375.676 1111.29 328.033 1061.73 328.033C1012.16 328.033 971.973 375.676 971.973 434.447C971.973 493.217 1012.16 540.86 1061.73 540.86Z" fill="#E5F3FA"/>
<path d="M1657.03 571.721C1724.97 571.721 1780.04 542.783 1780.04 507.085C1780.04 471.388 1724.97 442.45 1657.03 442.45C1589.1 442.45 1534.03 471.388 1534.03 507.085C1534.03 542.783 1589.1 571.721 1657.03 571.721Z" fill="#E5F3FA"/>
<path d="M1299.98 850.652C1383.3 850.652 1450.85 770.57 1450.85 671.783C1450.85 572.997 1383.3 492.915 1299.98 492.915C1216.66 492.915 1149.12 572.997 1149.12 671.783C1149.12 770.57 1216.66 850.652 1299.98 850.652Z" fill="white"/>
<path d="M1148.25 726.132C1219.92 726.132 1278.02 649.234 1278.02 554.375C1278.02 459.516 1219.92 382.617 1148.25 382.617C1076.58 382.617 1018.48 459.516 1018.48 554.375C1018.48 649.234 1076.58 726.132 1148.25 726.132Z" fill="#E5F3FA"/>
<path d="M932.206 703.275C1033.02 703.275 1114.75 620.76 1114.75 518.974C1114.75 417.187 1033.02 334.673 932.206 334.673C831.393 334.673 749.667 417.187 749.667 518.974C749.667 620.76 831.393 703.275 932.206 703.275Z" fill="#E5F3FA"/>
<path d="M728.045 563.874C790.51 563.874 841.147 503.836 841.147 429.775C841.147 355.714 790.51 295.676 728.045 295.676C665.581 295.676 614.943 355.714 614.943 429.775C614.943 503.836 665.581 563.874 728.045 563.874Z" fill="#E5F3FA"/>
<path d="M514.191 602.871C589.714 602.871 650.937 542.833 650.937 468.772C650.937 394.711 589.714 334.673 514.191 334.673C438.668 334.673 377.444 394.711 377.444 468.772C377.444 542.833 438.668 602.871 514.191 602.871Z" fill="#E5F3FA"/>
<path d="M351.566 602.871C399.576 602.871 438.495 564.122 438.495 516.323C438.495 468.524 399.576 429.775 351.566 429.775C303.557 429.775 264.638 468.524 264.638 516.323C264.638 564.122 303.557 602.871 351.566 602.871Z" fill="#E5F3FA"/>
<path d="M277.345 829.475C332.628 829.475 377.444 759.38 377.444 672.912C377.444 586.445 332.628 516.35 277.345 516.35C222.061 516.35 177.245 586.445 177.245 672.912C177.245 759.38 222.061 829.475 277.345 829.475Z" fill="#E5F3FA"/>
<path d="M1303.29 751.718C1370.26 751.718 1424.55 695.839 1424.55 626.909C1424.55 557.979 1370.26 502.1 1303.29 502.1C1236.32 502.1 1182.03 557.979 1182.03 626.909C1182.03 695.839 1236.32 751.718 1303.29 751.718Z" fill="#A2D2DF"/>
<path d="M1157.21 663.465C1219.22 663.465 1269.49 603.861 1269.49 530.336C1269.49 456.812 1219.22 397.208 1157.21 397.208C1095.2 397.208 1044.93 456.812 1044.93 530.336C1044.93 603.861 1095.2 663.465 1157.21 663.465Z" fill="#A2D2DF"/>
<path d="M940.004 635.228C1026.44 635.228 1096.52 575.625 1096.52 502.1C1096.52 428.575 1026.44 368.972 940.004 368.972C853.564 368.972 783.49 428.575 783.49 502.1C783.49 575.625 853.564 635.228 940.004 635.228Z" fill="#A2D2DF"/>
<path d="M728.046 615.782C789.044 615.782 838.493 549.893 838.493 468.614C838.493 387.336 789.044 321.446 728.046 321.446C667.048 321.446 617.6 387.336 617.6 468.614C617.6 549.893 667.048 615.782 728.046 615.782Z" fill="#A2D2DF"/>
<path d="M514.191 693.224C589.714 693.224 650.937 620.638 650.937 531.098C650.937 441.558 589.714 368.972 514.191 368.972C438.668 368.972 377.444 441.558 377.444 531.098C377.444 620.638 438.668 693.224 514.191 693.224Z" fill="#A2D2DF"/>
<path d="M369.689 676.35C420.69 676.35 462.034 627.332 462.034 566.866C462.034 506.4 420.69 457.382 369.689 457.382C318.689 457.382 277.345 506.4 277.345 566.866C277.345 627.332 318.689 676.35 369.689 676.35Z" fill="#A2D2DF"/>
<path d="M284.931 806.329C344.405 806.329 392.617 743.518 392.617 666.037C392.617 588.555 344.405 525.744 284.931 525.744C225.458 525.744 177.245 588.555 177.245 666.037C177.245 743.518 225.458 806.329 284.931 806.329Z" fill="#A2D2DF"/>
<path d="M1259.48 816.747C1345.02 816.747 1414.37 743.902 1414.37 654.043C1414.37 564.185 1345.02 491.34 1259.48 491.34C1173.93 491.34 1104.59 564.185 1104.59 654.043C1104.59 743.902 1173.93 816.747 1259.48 816.747Z" fill="white"/>
<path d="M363.831 854.563C426.715 854.563 477.692 786.065 477.692 701.569C477.692 617.073 426.715 548.575 363.831 548.575C300.948 548.575 249.971 617.073 249.971 701.569C249.971 786.065 300.948 854.563 363.831 854.563Z" fill="white"/>
<path d="M264.427 825.748C327.31 825.748 378.288 757.25 378.288 672.754C378.288 588.258 327.31 519.76 264.427 519.76C201.544 519.76 150.566 588.258 150.566 672.754C150.566 757.25 201.544 825.748 264.427 825.748Z" fill="white"/>
<path d="M1158.98 852.358C1216.19 852.358 1262.58 797.372 1262.58 729.543C1262.58 661.714 1216.19 606.728 1158.98 606.728C1101.76 606.728 1055.38 661.714 1055.38 729.543C1055.38 797.372 1101.76 852.358 1158.98 852.358Z" fill="white"/>
<path d="M1324.47 748.412C1388.84 748.412 1441.03 690.535 1441.03 619.141C1441.03 547.747 1388.84 489.871 1324.47 489.871C1260.1 489.871 1207.91 547.747 1207.91 619.141C1207.91 690.535 1260.1 748.412 1324.47 748.412Z" fill="#E5F3FA"/>
<path d="M1146.82 681.546C1207.04 681.546 1255.85 623.67 1255.85 552.275C1255.85 480.881 1207.04 423.005 1146.82 423.005C1086.6 423.005 1037.79 480.881 1037.79 552.275C1037.79 623.67 1086.6 681.546 1146.82 681.546Z" fill="#E5F3FA"/>
<path d="M977.663 693.303C1037.88 693.303 1086.7 635.426 1086.7 564.032C1086.7 492.638 1037.88 434.761 977.663 434.761C917.444 434.761 868.628 492.638 868.628 564.032C868.628 635.426 917.444 693.303 977.663 693.303Z" fill="#E5F3FA"/>
<path d="M754.514 773.788C825.533 773.788 883.105 708.439 883.105 627.827C883.105 547.216 825.533 481.867 754.514 481.867C683.495 481.867 625.923 547.216 625.923 627.827C625.923 708.439 683.495 773.788 754.514 773.788Z" fill="#E5F3FA"/>
<path d="M485.489 814.175C578.109 814.175 653.192 732.319 653.192 631.344C653.192 530.369 578.109 448.512 485.489 448.512C392.869 448.512 317.785 530.369 317.785 631.344C317.785 732.319 392.869 814.175 485.489 814.175Z" fill="#E5F3FA"/>
<path d="M255.745 736.55C305.313 736.55 345.497 688.907 345.497 630.137C345.497 571.367 305.313 523.724 255.745 523.724C206.176 523.724 165.992 571.367 165.992 630.137C165.992 688.907 206.176 736.55 255.745 736.55Z" fill="#E5F3FA"/>
<path d="M1046.38 853.067C1106.6 853.067 1155.42 795.19 1155.42 723.796C1155.42 652.402 1106.6 594.526 1046.38 594.526C986.165 594.526 937.349 652.402 937.349 723.796C937.349 795.19 986.165 853.067 1046.38 853.067Z" fill="#E5F3FA"/>
<path d="M1146.82 767.411C1207.04 767.411 1255.85 709.535 1255.85 638.14C1255.85 566.746 1207.04 508.87 1146.82 508.87C1086.6 508.87 1037.79 566.746 1037.79 638.14C1037.79 709.535 1086.6 767.411 1146.82 767.411Z" fill="#E5F3FA"/>
<g filter="url(#filter2_d_14_622)">
<path d="M965.187 597.071C1048.51 597.071 1116.05 516.989 1116.05 418.202C1116.05 319.416 1048.51 239.333 965.187 239.333C881.866 239.333 814.321 319.416 814.321 418.202C814.321 516.989 881.866 597.071 965.187 597.071Z" fill="white"/>
<path d="M813.436 472.55C885.107 472.55 943.207 395.652 943.207 300.793C943.207 205.934 885.107 129.036 813.436 129.036C741.766 129.036 683.665 205.934 683.665 300.793C683.665 395.652 741.766 472.55 813.436 472.55Z" fill="#E5F3FA"/>
<path d="M597.41 449.694C698.224 449.694 779.95 367.179 779.95 265.392C779.95 163.606 698.224 81.0913 597.41 81.0913C496.597 81.0913 414.871 163.606 414.871 265.392C414.871 367.179 496.597 449.694 597.41 449.694Z" fill="#E5F3FA"/>
<path d="M393.249 310.293C455.714 310.293 506.351 250.255 506.351 176.194C506.351 102.133 455.714 42.0947 393.249 42.0947C330.785 42.0947 280.147 102.133 280.147 176.194C280.147 250.255 330.785 310.293 393.249 310.293Z" fill="#E5F3FA"/>
<path d="M179.373 349.29C254.896 349.29 316.12 289.251 316.12 215.19C316.12 141.13 254.896 81.0913 179.373 81.0913C103.85 81.0913 42.627 141.13 42.627 215.19C42.627 289.251 103.85 349.29 179.373 349.29Z" fill="#E5F3FA"/>
<path d="M16.7703 349.289C64.7796 349.289 103.699 310.541 103.699 262.742C103.699 214.943 64.7796 176.194 16.7703 176.194C-31.239 176.194 -70.1582 214.943 -70.1582 262.742C-70.1582 310.541 -31.239 349.289 16.7703 349.289Z" fill="#E5F3FA"/>
<path d="M-57.4512 575.894C-2.1678 575.894 42.6483 505.798 42.6483 419.331C42.6483 332.864 -2.1678 262.768 -57.4512 262.768C-112.735 262.768 -157.551 332.864 -157.551 419.331C-157.551 505.798 -112.735 575.894 -57.4512 575.894Z" fill="#E5F3FA"/>
</g>
<path d="M970.751 514.381C1037.72 514.381 1092.01 458.502 1092.01 389.572C1092.01 320.641 1037.72 264.762 970.751 264.762C903.782 264.762 849.493 320.641 849.493 389.572C849.493 458.502 903.782 514.381 970.751 514.381Z" fill="#A2D2DF"/>
<path d="M824.689 426.127C886.7 426.127 936.969 366.524 936.969 292.999C936.969 219.474 886.7 159.871 824.689 159.871C762.679 159.871 712.409 219.474 712.409 292.999C712.409 366.524 762.679 426.127 824.689 426.127Z" fill="#A2D2DF"/>
<path d="M607.483 397.891C693.923 397.891 763.997 338.287 763.997 264.762C763.997 191.238 693.923 131.634 607.483 131.634C521.043 131.634 450.97 191.238 450.97 264.762C450.97 338.287 521.043 397.891 607.483 397.891Z" fill="#A2D2DF"/>
<path d="M395.526 378.419C456.524 378.419 505.972 312.53 505.972 231.251C505.972 149.972 456.524 84.083 395.526 84.083C334.528 84.083 285.079 149.972 285.079 231.251C285.079 312.53 334.528 378.419 395.526 378.419Z" fill="#A2D2DF"/>
<path d="M214.145 418.675C275.143 418.675 324.592 352.785 324.592 271.507C324.592 190.228 275.143 124.339 214.145 124.339C153.147 124.339 103.698 190.228 103.698 271.507C103.698 352.785 153.147 418.675 214.145 418.675Z" fill="#A2D2DF"/>
<path d="M100.938 516.139C161.936 516.139 211.385 450.25 211.385 368.971C211.385 287.693 161.936 221.803 100.938 221.803C39.9399 221.803 -9.50879 287.693 -9.50879 368.971C-9.50879 450.25 39.9399 516.139 100.938 516.139Z" fill="#A2D2DF"/>
<path d="M181.65 656.012C257.173 656.012 318.396 583.425 318.396 493.885C318.396 404.346 257.173 331.759 181.65 331.759C106.127 331.759 44.9033 404.346 44.9033 493.885C44.9033 583.425 106.127 656.012 181.65 656.012Z" fill="#A2D2DF"/>
<path d="M926.959 579.41C1012.5 579.41 1081.85 506.565 1081.85 416.707C1081.85 326.848 1012.5 254.003 926.959 254.003C841.415 254.003 772.068 326.848 772.068 416.707C772.068 506.565 841.415 579.41 926.959 579.41Z" fill="white"/>
<path d="M724.105 732.745C793.354 732.745 849.492 666.186 849.492 584.081C849.492 501.976 793.354 435.417 724.105 435.417C654.855 435.417 598.717 501.976 598.717 584.081C598.717 666.186 654.855 732.745 724.105 732.745Z" fill="white"/>
<path d="M826.459 614.995C883.675 614.995 930.057 560.009 930.057 492.18C930.057 424.351 883.675 369.365 826.459 369.365C769.244 369.365 722.861 424.351 722.861 492.18C722.861 560.009 769.244 614.995 826.459 614.995Z" fill="white"/>
<path d="M985.902 488.506C1050.27 488.506 1102.46 430.63 1102.46 359.236C1102.46 287.841 1050.27 229.965 985.902 229.965C921.529 229.965 869.344 287.841 869.344 359.236C869.344 430.63 921.529 488.506 985.902 488.506Z" fill="#E5F3FA"/>
<path d="M838.493 446.282C898.711 446.282 947.528 388.405 947.528 317.011C947.528 245.617 898.711 187.741 838.493 187.741C778.275 187.741 729.458 245.617 729.458 317.011C729.458 388.405 778.275 446.282 838.493 446.282Z" fill="#E5F3FA"/>
<path d="M645.142 455.939C705.36 455.939 754.177 398.062 754.177 326.668C754.177 255.274 705.36 197.397 645.142 197.397C584.924 197.397 536.107 255.274 536.107 326.668C536.107 398.062 584.924 455.939 645.142 455.939Z" fill="#E5F3FA"/>
<path d="M421.994 536.451C493.013 536.451 550.585 471.102 550.585 390.49C550.585 309.878 493.013 244.529 421.994 244.529C350.975 244.529 293.403 309.878 293.403 390.49C293.403 471.102 350.975 536.451 421.994 536.451Z" fill="#E5F3FA"/>
<path d="M152.968 776.964C245.588 776.964 320.672 695.107 320.672 594.132C320.672 493.157 245.588 411.301 152.968 411.301C60.3481 411.301 -14.7354 493.157 -14.7354 594.132C-14.7354 695.107 60.3481 776.964 152.968 776.964Z" fill="#E5F3FA"/>
<path d="M446.967 670.235C541.763 670.235 618.611 617.846 618.611 553.22C618.611 488.594 541.763 436.205 446.967 436.205C352.17 436.205 275.322 488.594 275.322 553.22C275.322 617.846 352.17 670.235 446.967 670.235Z" fill="#E5F3FA"/>
<path d="M713.863 615.703C774.081 615.703 822.898 557.827 822.898 486.432C822.898 415.038 774.081 357.162 713.863 357.162C653.645 357.162 604.828 415.038 604.828 486.432C604.828 557.827 653.645 615.703 713.863 615.703Z" fill="#E5F3FA"/>
<path d="M1374.98 507.689C1435.2 507.689 1484.02 449.813 1484.02 378.419C1484.02 307.025 1435.2 249.148 1374.98 249.148C1314.77 249.148 1265.95 307.025 1265.95 378.419C1265.95 449.813 1314.77 507.689 1374.98 507.689Z" fill="#E5F3FA"/>
<path d="M814.3 530.048C874.519 530.048 923.335 472.171 923.335 400.777C923.335 329.383 874.519 271.507 814.3 271.507C754.082 271.507 705.266 329.383 705.266 400.777C705.266 472.171 754.082 530.048 814.3 530.048Z" fill="#E5F3FA"/>
<path d="M518.532 530.048C586.467 530.048 641.538 501.109 641.538 465.412C641.538 429.715 586.467 400.777 518.532 400.777C450.597 400.777 395.525 429.715 395.525 465.412C395.525 501.109 450.597 530.048 518.532 530.048Z" fill="#E5F3FA"/>
<path d="M320.673 551.068C388.607 551.068 443.679 522.13 443.679 486.433C443.679 450.736 388.607 421.798 320.673 421.798C252.738 421.798 197.666 450.736 197.666 486.433C197.666 522.13 252.738 551.068 320.673 551.068Z" fill="#E5F3FA"/>
<path d="M1544.18 801.237C1659.66 801.237 1753.28 684.662 1753.28 540.859C1753.28 397.056 1659.66 280.481 1544.18 280.481C1428.71 280.481 1335.09 397.056 1335.09 540.859C1335.09 684.662 1428.71 801.237 1544.18 801.237Z" fill="white"/>
<path d="M1154.98 509.841C1214.39 509.841 1262.56 466.146 1262.56 412.245C1262.56 358.345 1214.39 314.649 1154.98 314.649C1095.56 314.649 1047.39 358.345 1047.39 412.245C1047.39 466.146 1095.56 509.841 1154.98 509.841Z" fill="white"/>
<path d="M1003.69 732.771C1087.98 732.771 1156.3 633.832 1156.3 511.783C1156.3 389.735 1087.98 290.795 1003.69 290.795C919.401 290.795 851.073 389.735 851.073 511.783C851.073 633.832 919.401 732.771 1003.69 732.771Z" fill="white"/>
<path d="M689.122 932.162C804.601 932.162 898.214 815.586 898.214 671.784C898.214 527.981 804.601 411.406 689.122 411.406C573.644 411.406 480.03 527.981 480.03 671.784C480.03 815.586 573.644 932.162 689.122 932.162Z" fill="white"/>
<path d="M615.956 986.51C761.974 986.51 880.345 819.19 880.345 612.79C880.345 406.391 761.974 239.071 615.956 239.071C469.938 239.071 351.566 406.391 351.566 612.79C351.566 819.19 469.938 986.51 615.956 986.51Z" fill="white"/>
<path d="M1315.26 586.653C1375.48 586.653 1424.3 528.776 1424.3 457.382C1424.3 385.988 1375.48 328.112 1315.26 328.112C1255.04 328.112 1206.23 385.988 1206.23 457.382C1206.23 528.776 1255.04 586.653 1315.26 586.653Z" fill="#E5F3FA"/>
<path d="M550.564 592.741C610.782 592.741 659.599 534.865 659.599 463.471C659.599 392.077 610.782 334.2 550.564 334.2C490.346 334.2 441.529 392.077 441.529 463.471C441.529 534.865 490.346 592.741 550.564 592.741Z" fill="#E5F3FA"/>
<path d="M837.691 480.187C895.326 480.187 942.048 436.492 942.048 382.591C942.048 328.69 895.326 284.995 837.691 284.995C780.057 284.995 733.335 328.69 733.335 382.591C733.335 436.492 780.057 480.187 837.691 480.187Z" fill="white"/>
<path d="M521.672 435.732C559.439 435.732 590.056 392.037 590.056 338.136C590.056 284.235 559.439 240.54 521.672 240.54C483.905 240.54 453.288 284.235 453.288 338.136C453.288 392.037 483.905 435.732 521.672 435.732Z" fill="white"/>
<path d="M492.948 619.141C565.573 619.141 624.448 545.826 624.448 455.388C624.448 364.95 565.573 291.635 492.948 291.635C420.323 291.635 361.449 364.95 361.449 455.388C361.449 545.826 420.323 619.141 492.948 619.141Z" fill="white"/>
<path d="M1271.24 871.043C1386.72 871.043 1480.33 754.468 1480.33 610.665C1480.33 466.862 1386.72 350.287 1271.24 350.287C1155.76 350.287 1062.15 466.862 1062.15 610.665C1062.15 754.468 1155.76 871.043 1271.24 871.043Z" fill="white"/>
<path d="M512.968 457.329C573.187 457.329 622.003 399.453 622.003 328.059C622.003 256.665 573.187 198.788 512.968 198.788C452.75 198.788 403.934 256.665 403.934 328.059C403.934 399.453 452.75 457.329 512.968 457.329Z" fill="#E5F3FA"/>
<path d="M865.15 471.711C922.785 471.711 969.507 428.015 969.507 374.115C969.507 320.214 922.785 276.519 865.15 276.519C807.516 276.519 760.794 320.214 760.794 374.115C760.794 428.015 807.516 471.711 865.15 471.711Z" fill="#E5F3FA"/>
<path d="M868.122 599.931C952.013 599.931 1020.02 515.243 1020.02 410.775C1020.02 306.307 952.013 221.619 868.122 221.619C784.231 221.619 716.224 306.307 716.224 410.775C716.224 515.243 784.231 599.931 868.122 599.931Z" fill="white"/>
<path d="M465.194 574.765C537.819 574.765 596.694 501.45 596.694 411.012C596.694 320.574 537.819 247.259 465.194 247.259C392.569 247.259 333.695 320.574 333.695 411.012C333.695 501.45 392.569 574.765 465.194 574.765Z" fill="white"/>
<path d="M503.612 450.323C560.56 450.323 606.725 402.022 606.725 342.44C606.725 282.858 560.56 234.557 503.612 234.557C446.664 234.557 400.499 282.858 400.499 342.44C400.499 402.022 446.664 450.323 503.612 450.323Z" fill="white"/>
<path d="M414.849 439.642C471.797 439.642 517.962 391.341 517.962 331.759C517.962 272.177 471.797 223.876 414.849 223.876C357.902 223.876 311.736 272.177 311.736 331.759C311.736 391.341 357.902 439.642 414.849 439.642Z" fill="white"/>
<path d="M255.744 400.882C312.692 400.882 358.857 352.581 358.857 292.999C358.857 233.417 312.692 185.116 255.744 185.116C198.796 185.116 152.631 233.417 152.631 292.999C152.631 352.581 198.796 400.882 255.744 400.882Z" fill="white"/>
<path d="M243.016 508.66C299.964 508.66 346.129 460.359 346.129 400.777C346.129 341.195 299.964 292.894 243.016 292.894C186.069 292.894 139.903 341.195 139.903 400.777C139.903 460.359 186.069 508.66 243.016 508.66Z" fill="white"/>
<path d="M68.7371 508.66C125.685 508.66 171.85 460.359 171.85 400.777C171.85 341.195 125.685 292.894 68.7371 292.894C11.7893 292.894 -34.376 341.195 -34.376 400.777C-34.376 460.359 11.7893 508.66 68.7371 508.66Z" fill="white"/>
<path d="M607.828 570.527C666.251 560.315 707.904 501.389 700.862 438.912C693.82 376.435 640.749 334.066 582.326 344.278C523.903 354.49 482.25 413.416 489.292 475.893C496.334 538.37 549.405 580.739 607.828 570.527Z" fill="#E5F3FA"/>
<path d="M619.738 647.451C696.913 633.962 752.244 558.858 743.322 479.704C734.4 400.549 664.604 347.317 587.428 360.806C510.253 374.296 454.922 449.399 463.844 528.554C472.766 607.709 542.562 660.941 619.738 647.451Z" fill="white"/>
<defs>
<filter id="filter0_d_14_622" x="-180.397" y="47.9934" width="2453.9" height="638.423" filterUnits="userSpaceOnUse" color-interpolation-filters="sRGB">
<feFlood flood-opacity="0" result="BackgroundImageFix"/>
<feColorMatrix in="SourceAlpha" type="matrix" values="0 0 0 0 0 0 0 0 0 0 0 0 0 0 0 0 0 0 127 0" result="hardAlpha"/>
<feOffset dx="-4.18" dy="10.45"/>
<feGaussianBlur stdDeviation="10.45"/>
<feColorMatrix type="matrix" values="0 0 0 0 0.113725 0 0 0 0 0.113725 0 0 0 0 0.105882 0 0 0 0.5 0"/>
<feBlend mode="normal" in2="BackgroundImageFix" result="effect1_dropShadow_14_622"/>
<feBlend mode="normal" in="SourceGraphic" in2="effect1_dropShadow_14_622" result="shape"/>
</filter>
<filter id="filter1_d_14_622" x="937.236" y="58.6917" width="1361.4" height="642.776" filterUnits="userSpaceOnUse" color-interpolation-filters="sRGB">
<feFlood flood-opacity="0" result="BackgroundImageFix"/>
<feColorMatrix in="SourceAlpha" type="matrix" values="0 0 0 0 0 0 0 0 0 0 0 0 0 0 0 0 0 0 127 0" result="hardAlpha"/>
<feOffset dx="-2.09" dy="2.58"/>
<feGaussianBlur stdDeviation="21.95"/>
<feColorMatrix type="matrix" values="0 0 0 0 0.113725 0 0 0 0 0.113725 0 0 0 0 0.105882 0 0 0 0.35 0"/>
<feBlend mode="normal" in2="BackgroundImageFix" result="effect1_dropShadow_14_622"/>
<feBlend mode="normal" in="SourceGraphic" in2="effect1_dropShadow_14_622" result="shape"/>
</filter>
<filter id="filter2_d_14_622" x="-203.541" y="0.774725" width="1361.4" height="642.776" filterUnits="userSpaceOnUse" color-interpolation-filters="sRGB">
<feFlood flood-opacity="0" result="BackgroundImageFix"/>
<feColorMatrix in="SourceAlpha" type="matrix" values="0 0 0 0 0 0 0 0 0 0 0 0 0 0 0 0 0 0 127 0" result="hardAlpha"/>
<feOffset dx="-2.09" dy="2.58"/>
<feGaussianBlur stdDeviation="21.95"/>
<feColorMatrix type="matrix" values="0 0 0 0 0.113725 0 0 0 0 0.113725 0 0 0 0 0.105882 0 0 0 0.35 0"/>
<feBlend mode="normal" in2="BackgroundImageFix" result="effect1_dropShadow_14_622"/>
<feBlend mode="normal" in="SourceGraphic" in2="effect1_dropShadow_14_622" result="shape"/>
</filter>
</defs>
</svg>
